<svg id="visual" viewBox="0 0 900 600" width="900" height="600" xmlns="http://www.w3.org/2000/svg" xmlns:xlink="http://www.w3.org/1999/xlink" version="1.1"><rect x="0" y="0" width="900" height="600" fill="#f8f5ed"></rect><g transform="translate(904.3162907763601 682.1134553084366)"><path d="M353.8 -677C439 -563.7 475 -429.3 470.3 -313C465.6 -196.7 420.3 -98.3 433.6 7.7C446.9 113.7 518.8 227.3 502.5 307.4C486.3 387.5 381.9 434.1 283.4 469.3C185 504.4 92.5 528.2 -30.1 580.3C-152.7 632.4 -305.3 712.9 -366.7 656.3C-428 599.7 -398 406.1 -409.5 273.9C-421 141.7 -474 70.8 -498.8 -14.3C-523.7 -99.5 -520.3 -199 -463 -251.8C-405.6 -304.5 -294.2 -310.6 -208 -423.3C-121.9 -536.1 -60.9 -755.5 36.7 -819.1C134.3 -882.7 268.7 -790.3 353.8 -677" fill="#2034e7"></path></g></svg>