<svg id="visual" viewBox="0 0 900 600" width="900" height="600" xmlns="http://www.w3.org/2000/svg" xmlns:xlink="http://www.w3.org/1999/xlink" version="1.1"><rect x="0" y="0" width="900" height="600" fill="#6600FF"></rect><path d="M0 454L10 448.8C20 443.7 40 433.3 60 429.5C80 425.7 100 428.3 120 425.8C140 423.3 160 415.7 180 408.2C200 400.7 220 393.3 240 396C260 398.7 280 411.3 300 414.2C320 417 340 410 360 404C380 398 400 393 420 398C440 403 460 418 480 426.5C500 435 520 437 540 439.7C560 442.3 580 445.7 600 442.8C620 440 640 431 660 421.5C680 412 700 402 720 396.3C740 390.7 760 389.3 780 395.3C800 401.3 820 414.7 840 414.7C860 414.7 880 401.3 890 394.7L900 388L900 601L890 601C880 601 860 601 840 601C820 601 800 601 780 601C760 601 740 601 720 601C700 601 680 601 660 601C640 601 620 601 600 601C580 601 560 601 540 601C520 601 500 601 480 601C460 601 440 601 420 601C400 601 380 601 360 601C340 601 320 601 300 601C280 601 260 601 240 601C220 601 200 601 180 601C160 601 140 601 120 601C100 601 80 601 60 601C40 601 20 601 10 601L0 601Z" fill="#6600ff"></path><path d="M0 447L10 450.7C20 454.3 40 461.7 60 464.3C80 467 100 465 120 457.5C140 450 160 437 180 439C200 441 220 458 240 464.3C260 470.7 280 466.3 300 458.8C320 451.3 340 440.7 360 441.7C380 442.7 400 455.3 420 456.7C440 458 460 448 480 443.5C500 439 520 440 540 446.3C560 452.7 580 464.3 600 470.2C620 476 640 476 660 470.7C680 465.3 700 454.7 720 449C740 443.3 760 442.7 780 439.5C800 436.3 820 430.7 840 432.3C860 434 880 443 890 447.5L900 452L900 601L890 601C880 601 860 601 840 601C820 601 800 601 780 601C760 601 740 601 720 601C700 601 680 601 660 601C640 601 620 601 600 601C580 601 560 601 540 601C520 601 500 601 480 601C460 601 440 601 420 601C400 601 380 601 360 601C340 601 320 601 300 601C280 601 260 601 240 601C220 601 200 601 180 601C160 601 140 601 120 601C100 601 80 601 60 601C40 601 20 601 10 601L0 601Z" fill="#2b2bce"></path><path d="M0 501L10 494.7C20 488.3 40 475.7 60 474.7C80 473.7 100 484.3 120 486.2C140 488 160 481 180 483C200 485 220 496 240 494C260 492 280 477 300 474.3C320 471.7 340 481.3 360 482C380 482.7 400 474.3 420 476.5C440 478.7 460 491.3 480 496.5C500 501.7 520 499.3 540 499C560 498.7 580 500.3 600 497.7C620 495 640 488 660 481.2C680 474.3 700 467.7 720 469.5C740 471.3 760 481.7 780 486.3C800 491 820 490 840 489.3C860 488.7 880 488.3 890 488.2L900 488L900 601L890 601C880 601 860 601 840 601C820 601 800 601 780 601C760 601 740 601 720 601C700 601 680 601 660 601C640 601 620 601 600 601C580 601 560 601 540 601C520 601 500 601 480 601C460 601 440 601 420 601C400 601 380 601 360 601C340 601 320 601 300 601C280 601 260 601 240 601C220 601 200 601 180 601C160 601 140 601 120 601C100 601 80 601 60 601C40 601 20 601 10 601L0 601Z" fill="#002e98"></path><path d="M0 513L10 511.2C20 509.3 40 505.7 60 504.8C80 504 100 506 120 511.7C140 517.3 160 526.7 180 527C200 527.3 220 518.7 240 517.7C260 516.7 280 523.3 300 526.7C320 530 340 530 360 525.5C380 521 400 512 420 509.3C440 506.7 460 510.3 480 515.5C500 520.7 520 527.3 540 526.7C560 526 580 518 600 515.2C620 512.3 640 514.7 660 516.3C680 518 700 519 720 517.2C740 515.3 760 510.7 780 512.2C800 513.7 820 521.3 840 521.3C860 521.3 880 513.7 890 509.8L900 506L900 601L890 601C880 601 860 601 840 601C820 601 800 601 780 601C760 601 740 601 720 601C700 601 680 601 660 601C640 601 620 601 600 601C580 601 560 601 540 601C520 601 500 601 480 601C460 601 440 601 420 601C400 601 380 601 360 601C340 601 320 601 300 601C280 601 260 601 240 601C220 601 200 601 180 601C160 601 140 601 120 601C100 601 80 601 60 601C40 601 20 601 10 601L0 601Z" fill="#00265f"></path><path d="M0 560L10 557.3C20 554.7 40 549.3 60 549.8C80 550.3 100 556.7 120 556.8C140 557 160 551 180 547.5C200 544 220 543 240 542.7C260 542.3 280 542.7 300 541.5C320 540.3 340 537.7 360 539.5C380 541.3 400 547.7 420 550.3C440 553 460 552 480 553C500 554 520 557 540 557C560 557 580 554 600 550.8C620 547.7 640 544.3 660 541.5C680 538.7 700 536.3 720 537.2C740 538 760 542 780 546.3C800 550.7 820 555.3 840 554.7C860 554 880 548 890 545L900 542L900 601L890 601C880 601 860 601 840 601C820 601 800 601 780 601C760 601 740 601 720 601C700 601 680 601 660 601C640 601 620 601 600 601C580 601 560 601 540 601C520 601 500 601 480 601C460 601 440 601 420 601C400 601 380 601 360 601C340 601 320 601 300 601C280 601 260 601 240 601C220 601 200 601 180 601C160 601 140 601 120 601C100 601 80 601 60 601C40 601 20 601 10 601L0 601Z" fill="#111827"></path></svg>